<?xml version="1.0" encoding="utf-8"?>
<!-- Generator: Adobe Illustrator 23.0.3, SVG Export Plug-In . SVG Version: 6.00 Build 0)  -->
<svg version="1.1" xmlns="http://www.w3.org/2000/svg" xmlns:xlink="http://www.w3.org/1999/xlink" x="0px" y="0px"
	 viewBox="0 0 500 500" style="enable-background:new 0 0 500 500;" xml:space="preserve">
<style type="text/css">
	.st0{fill:none;}
	.st1{fill-rule:evenodd;clip-rule:evenodd;fill:#000404;}
	.st2{fill-rule:evenodd;clip-rule:evenodd;fill:#D1CCE5;}
	.st3{fill-rule:evenodd;clip-rule:evenodd;fill:#E2E4E8;}
	.st4{fill-rule:evenodd;clip-rule:evenodd;fill:#EEEEEF;}
	.st5{fill-rule:evenodd;clip-rule:evenodd;fill:#00A195;}
	.st6{fill-rule:evenodd;clip-rule:evenodd;fill:#535671;}
	.st7{fill-rule:evenodd;clip-rule:evenodd;fill:#66646D;}
	.st8{fill-rule:evenodd;clip-rule:evenodd;fill:#3E3A39;}
	.st9{fill-rule:evenodd;clip-rule:evenodd;fill:#FFFFFF;}
	.st10{fill-rule:evenodd;clip-rule:evenodd;fill:#17ACB3;}
	.st11{fill-rule:evenodd;clip-rule:evenodd;fill:#E7E5E4;}
	.st12{fill-rule:evenodd;clip-rule:evenodd;fill:#55BECE;}
	.st13{fill-rule:evenodd;clip-rule:evenodd;fill:#FFF57F;}
	.st14{fill-rule:evenodd;clip-rule:evenodd;fill:#F29E7D;}
	.st15{fill-rule:evenodd;clip-rule:evenodd;fill:#F7BE7E;}
	.st16{fill-rule:evenodd;clip-rule:evenodd;fill:#82CEED;}
	.st17{fill-rule:evenodd;clip-rule:evenodd;fill:#C6C7C8;}
	.st18{fill-rule:evenodd;clip-rule:evenodd;fill:#C42F41;}
	.st19{fill-rule:evenodd;clip-rule:evenodd;fill:#B51D23;}
	.st20{fill-rule:evenodd;clip-rule:evenodd;fill:#80191E;}
	.st21{fill-rule:evenodd;clip-rule:evenodd;fill:#2D0304;}
	.st22{fill-rule:evenodd;clip-rule:evenodd;fill:#F3ACA9;}
	.st23{fill-rule:evenodd;clip-rule:evenodd;fill:#ED807B;}
	.st24{fill-rule:evenodd;clip-rule:evenodd;fill:#E9574E;}
	.st25{fill-rule:evenodd;clip-rule:evenodd;fill:#E62C10;}
	.st26{fill-rule:evenodd;clip-rule:evenodd;fill:#F9D19E;}
	.st27{fill-rule:evenodd;clip-rule:evenodd;fill:#F7B96B;}
	.st28{fill-rule:evenodd;clip-rule:evenodd;fill:#F4A236;}
	.st29{fill-rule:evenodd;clip-rule:evenodd;fill:#F08D00;}
	.st30{fill-rule:evenodd;clip-rule:evenodd;fill:#90D0D0;}
	.st31{fill-rule:evenodd;clip-rule:evenodd;fill:#5CBFB9;}
	.st32{fill-rule:evenodd;clip-rule:evenodd;fill:#00AFAA;}
	.st33{fill-rule:evenodd;clip-rule:evenodd;fill:#9CC3E1;}
	.st34{fill-rule:evenodd;clip-rule:evenodd;fill:#6CA4D2;}
	.st35{fill-rule:evenodd;clip-rule:evenodd;fill:#2985C2;}
	.st36{fill-rule:evenodd;clip-rule:evenodd;fill:#0069B4;}
	.st37{fill-rule:evenodd;clip-rule:evenodd;fill:#505054;}
	.st38{fill-rule:evenodd;clip-rule:evenodd;fill:#B9BABC;}
	.st39{fill-rule:evenodd;clip-rule:evenodd;fill:#F9C140;}
	.st40{fill-rule:evenodd;clip-rule:evenodd;fill:#FBD06D;}
	.st41{fill-rule:evenodd;clip-rule:evenodd;fill:#D7A230;}
	.st42{fill-rule:evenodd;clip-rule:evenodd;fill:#C6880B;}
	.st43{fill-rule:evenodd;clip-rule:evenodd;fill:#FFEEC9;}
	.st44{fill-rule:evenodd;clip-rule:evenodd;fill:#464442;}
	.st45{fill-rule:evenodd;clip-rule:evenodd;fill:#796BAE;}
	.st46{fill-rule:evenodd;clip-rule:evenodd;fill:#EDDFC9;}
</style>
<g id="BACKGROUND">
	<rect x="-50" y="-66" class="st0" width="593" height="593"/>
</g>
<g id="OBJECTS">
	<g>
		<path class="st1" d="M409.47,374.47c0,9.37-7.6,16.96-16.96,16.96H107.49c-9.37,0-16.97-7.6-16.97-16.96V185.46
			c0-9.37,7.6-16.96,16.97-16.96H392.5c9.37,0,16.96,7.59,16.96,16.96V374.47z"/>
		<path class="st2" d="M51.64,373.15v4.13c0,8.99,9.45,16.29,21.1,16.29h354.51c11.65,0,21.1-7.29,21.1-16.29v-4.13H51.64z"/>
		<polygon class="st3" points="102.97,182.7 102.97,355.75 395.49,355.75 395.49,197.12 102.97,197.12 		"/>
		<rect x="309.97" y="212.89" class="st4" width="79.09" height="105.55"/>
		<rect x="102.97" y="182.7" class="st5" width="292.52" height="14.42"/>
		<rect x="120.7" y="182.7" class="st4" width="179.8" height="164.05"/>
		<path class="st6" d="M427.26,399.61C427.26,399.61,427.25,399.61,427.26,399.61L427.26,399.61
			C427.25,399.61,427.26,399.61,427.26,399.61L427.26,399.61z M72.64,399.61L72.64,399.61L72.64,399.61L72.64,399.61L72.64,399.61
			L72.64,399.61z M427.37,399.61L427.37,399.61c-0.01,0-0.02,0-0.03,0C427.35,399.61,427.36,399.61,427.37,399.61L427.37,399.61z
			 M427.49,399.6L427.49,399.6c-0.02,0-0.05,0-0.07,0C427.44,399.6,427.47,399.6,427.49,399.6L427.49,399.6z M427.58,399.6
			L427.58,399.6c-0.02,0-0.03,0-0.05,0C427.55,399.6,427.56,399.6,427.58,399.6L427.58,399.6z M437.3,397.06L437.3,397.06
			c-2.89,1.57-6.19,2.48-9.7,2.54C431.11,399.55,434.41,398.63,437.3,397.06L437.3,397.06z M437.36,397.03L437.36,397.03
			c-0.02,0.01-0.03,0.02-0.05,0.03C437.33,397.05,437.35,397.04,437.36,397.03L437.36,397.03z M437.46,396.98L437.46,396.98
			c-0.03,0.02-0.06,0.03-0.09,0.05C437.4,397.01,437.43,396.99,437.46,396.98L437.46,396.98z M437.52,396.94L437.52,396.94
			c-0.01,0.01-0.02,0.01-0.04,0.02C437.49,396.96,437.51,396.95,437.52,396.94L437.52,396.94z M437.59,396.9L437.59,396.9
			c-0.01,0.01-0.02,0.01-0.03,0.02C437.57,396.92,437.58,396.91,437.59,396.9L437.59,396.9z M437.67,396.86L437.67,396.86
			c-0.01,0-0.01,0.01-0.02,0.01C437.66,396.86,437.67,396.86,437.67,396.86L437.67,396.86z M437.74,396.82L437.74,396.82
			C437.74,396.82,437.74,396.82,437.74,396.82C437.74,396.82,437.74,396.82,437.74,396.82z"/>
		<path class="st7" d="M446.33,384.24H53.66c3.37,5.49,10.59,9.29,18.98,9.32h0.01c0.03,0,0.06,0,0.09,0h354.51c0,0,0,0,0.01,0
			c0.02,0,0.05,0,0.08,0c0.01,0,0.02,0,0.03,0c0.02,0,0.03,0,0.05,0c0.02,0,0.05,0,0.07,0c0.01,0,0.02,0,0.04,0
			c0.02,0,0.04,0,0.05,0c0.01,0,0.01,0,0.02,0c3.51-0.04,6.81-0.75,9.7-1.96c0,0,0.01,0,0.01,0c0.02-0.01,0.03-0.01,0.05-0.02
			c0,0,0.01,0,0.01,0c0.03-0.01,0.06-0.03,0.09-0.04c0.01,0,0.01-0.01,0.02-0.01c0.01,0,0.02-0.01,0.04-0.02
			c0.01-0.01,0.03-0.01,0.04-0.02c0.01,0,0.02-0.01,0.03-0.01c0.02-0.01,0.04-0.02,0.06-0.03c0.01,0,0.01-0.01,0.02-0.01
			c0.02-0.01,0.04-0.02,0.06-0.03c0,0,0,0,0.01,0C441.47,389.76,444.48,387.26,446.33,384.24z"/>
		<rect x="305.47" y="209.86" class="st8" width="79.5" height="104.32"/>
		<g>
			<rect x="313.36" y="220.72" class="st9" width="19.92" height="1.25"/>
			<rect x="313.36" y="223.8" class="st9" width="10.52" height="1.25"/>
			<rect x="313.36" y="226.88" class="st9" width="16.96" height="1.25"/>
			<rect x="321.25" y="233.04" class="st9" width="9.9" height="1.25"/>
			<rect x="328.12" y="236.12" class="st9" width="9.63" height="1.25"/>
			<rect x="327.42" y="223.8" class="st9" width="17.94" height="1.25"/>
			<rect x="347.92" y="223.8" class="st9" width="8.57" height="1.25"/>
			<rect x="359.74" y="223.8" class="st9" width="11.57" height="1.25"/>
			<rect x="333.16" y="226.88" class="st9" width="10.09" height="1.25"/>
			<polygon class="st9" points="331.15,229.96 329.29,229.96 321.25,229.96 321.25,231.21 329.29,231.21 331.15,231.21 
				339.95,231.21 339.95,229.96 			"/>
			<rect x="334.18" y="233.04" class="st9" width="9.9" height="1.25"/>
			<rect x="342.7" y="229.96" class="st9" width="11" height="1.25"/>
			<rect x="355.91" y="229.96" class="st9" width="5.77" height="1.25"/>
			<rect x="364.16" y="229.96" class="st9" width="7.15" height="1.25"/>
			<rect x="346.28" y="233.04" class="st9" width="12.51" height="1.25"/>
			<rect x="360.65" y="233.04" class="st9" width="3.74" height="1.25"/>
			<rect x="340.5" y="236.12" class="st9" width="7.16" height="1.25"/>
			<rect x="321.25" y="242.28" class="st9" width="9.9" height="1.25"/>
			<rect x="321.25" y="245.36" class="st9" width="9.9" height="1.25"/>
			<rect x="334.18" y="245.36" class="st9" width="8.92" height="1.25"/>
			<polygon class="st9" points="344.09,242.28 342.7,242.28 334.18,242.28 334.18,243.53 342.7,243.53 344.09,243.53 351.16,243.53 
				351.16,242.28 			"/>
			<rect x="352.86" y="242.28" class="st9" width="4.45" height="1.25"/>
			<rect x="359.21" y="242.28" class="st9" width="5.5" height="1.25"/>
			<rect x="351.77" y="245.36" class="st9" width="9.91" height="1.25"/>
			<rect x="321.25" y="248.44" class="st9" width="9.9" height="1.25"/>
			<rect x="321.25" y="251.52" class="st9" width="9.9" height="1.25"/>
			<rect x="334.18" y="248.44" class="st9" width="5.78" height="1.25"/>
			<rect x="334.18" y="251.52" class="st9" width="18.15" height="1.25"/>
			<polygon class="st9" points="353.71,248.44 349.22,248.44 342.7,248.44 342.7,249.69 349.22,249.69 353.71,249.69 361.68,249.69 
				361.68,248.44 			"/>
			<rect x="364.16" y="248.44" class="st9" width="7.15" height="1.25"/>
			<rect x="354.53" y="251.52" class="st9" width="10.18" height="1.25"/>
			<rect x="345.08" y="245.36" class="st9" width="4.21" height="1.25"/>
			<rect x="313.36" y="257.68" class="st9" width="10.52" height="1.25"/>
			<rect x="313.36" y="260.76" class="st9" width="16.96" height="1.25"/>
			<rect x="321.25" y="263.84" class="st9" width="9.9" height="1.25"/>
			<rect x="321.25" y="266.92" class="st9" width="9.9" height="1.26"/>
			<polygon class="st9" points="341.82,257.68 339.92,257.68 327.42,257.68 327.42,258.93 339.92,258.93 341.82,258.93 
				344.95,258.93 344.95,257.68 			"/>
			<rect x="348.21" y="257.68" class="st9" width="15.99" height="1.25"/>
			<rect x="333.16" y="260.76" class="st9" width="10.09" height="1.25"/>
			<rect x="334.18" y="266.92" class="st9" width="7.7" height="1.26"/>
			<polygon class="st9" points="349.44,263.84 348.21,263.84 334.18,263.84 334.18,265.09 348.21,265.09 349.44,265.09 
				356.59,265.09 356.59,263.84 			"/>
			<rect x="344.08" y="266.92" class="st9" width="14.7" height="1.26"/>
			<rect x="360.65" y="266.92" class="st9" width="3.74" height="1.26"/>
			<rect x="340.5" y="270" class="st9" width="7.16" height="1.25"/>
			<polygon class="st9" points="337.75,270 335.17,270 328.12,270 328.12,271.25 335.17,271.25 337.75,271.25 362.58,271.25 
				362.58,270 			"/>
			<rect x="364.56" y="270" class="st9" width="3.98" height="1.25"/>
			<rect x="321.25" y="276.16" class="st9" width="9.9" height="1.25"/>
			<rect x="321.25" y="279.24" class="st9" width="9.9" height="1.25"/>
			<rect x="334.18" y="276.16" class="st9" width="16.3" height="1.25"/>
			<rect x="334.18" y="279.24" class="st9" width="8.92" height="1.25"/>
			<rect x="352.86" y="276.16" class="st9" width="4.45" height="1.25"/>
			<rect x="359.21" y="276.16" class="st9" width="5.5" height="1.25"/>
			<rect x="351.77" y="279.24" class="st9" width="9.91" height="1.25"/>
			<rect x="345.08" y="279.24" class="st9" width="4.21" height="1.25"/>
			<rect x="313.36" y="284.3" class="st9" width="10.52" height="1.25"/>
			<rect x="313.36" y="287.37" class="st9" width="16.96" height="1.25"/>
			<rect x="321.25" y="290.45" class="st9" width="9.9" height="1.25"/>
			<rect x="321.25" y="293.53" class="st9" width="9.9" height="1.25"/>
			<rect x="328.12" y="296.61" class="st9" width="9.63" height="1.25"/>
			<rect x="327.42" y="284.3" class="st9" width="9.95" height="1.25"/>
			<polygon class="st9" points="350.36,284.3 348.21,284.3 339.92,284.3 339.92,285.54 348.21,285.54 350.36,285.54 371.31,285.54 
				371.31,284.3 			"/>
			<rect x="333.16" y="287.37" class="st9" width="10.09" height="1.25"/>
			<rect x="334.18" y="293.53" class="st9" width="7.7" height="1.25"/>
			<polygon class="st9" points="349.22,290.45 348.21,290.45 334.18,290.45 334.18,291.7 348.21,291.7 349.22,291.7 356.59,291.7 
				356.59,290.45 			"/>
			<rect x="358.79" y="290.45" class="st9" width="5.1" height="1.25"/>
			<rect x="366.37" y="290.45" class="st9" width="4.94" height="1.25"/>
			<rect x="344.08" y="293.53" class="st9" width="14.7" height="1.25"/>
			<rect x="360.65" y="293.53" class="st9" width="3.74" height="1.25"/>
			<rect x="340.5" y="296.61" class="st9" width="7.16" height="1.25"/>
			<rect x="321.25" y="305.86" class="st9" width="9.9" height="1.25"/>
			<polygon class="st9" points="331.15,302.77 327.58,302.77 321.25,302.77 321.25,304.02 327.58,304.02 331.15,304.02 
				350.47,304.02 350.47,302.77 			"/>
			<rect x="334.18" y="305.86" class="st9" width="8.92" height="1.25"/>
			<rect x="352.86" y="302.77" class="st9" width="4.45" height="1.25"/>
			<rect x="359.21" y="302.77" class="st9" width="5.5" height="1.25"/>
			<rect x="351.77" y="305.86" class="st9" width="9.91" height="1.25"/>
			<rect x="345.08" y="305.86" class="st9" width="4.21" height="1.25"/>
		</g>
		<rect x="305.47" y="209.86" class="st10" width="79.5" height="6.19"/>
		<path class="st11" d="M381.15,212.56c0,0.9-0.73,1.62-1.62,1.62c-0.9,0-1.62-0.73-1.62-1.62c0-0.9,0.73-1.62,1.62-1.62
			C380.43,210.94,381.15,211.66,381.15,212.56z"/>
		<path class="st11" d="M375.74,212.56c0,0.9-0.73,1.62-1.62,1.62c-0.9,0-1.62-0.73-1.62-1.62c0-0.9,0.73-1.62,1.62-1.62
			C375.02,210.94,375.74,211.66,375.74,212.56z"/>
		<g>
			<rect x="114.16" y="133.33" class="st9" width="181.57" height="209.35"/>
			<rect x="114.16" y="133.33" class="st10" width="181.57" height="10.12"/>
			<path class="st11" d="M290.66,138.14c0,1.34-1.08,2.42-2.42,2.42c-1.34,0-2.42-1.08-2.42-2.42c0-1.34,1.08-2.42,2.42-2.42
				C289.57,135.72,290.66,136.8,290.66,138.14z"/>
			<path class="st11" d="M282.59,138.14c0,1.34-1.08,2.42-2.42,2.42c-1.34,0-2.42-1.08-2.42-2.42c0-1.34,1.08-2.42,2.42-2.42
				C281.51,135.72,282.59,136.8,282.59,138.14z"/>
			<rect x="114.16" y="161.65" class="st12" width="181.57" height="11.78"/>
			<rect x="229.89" y="164.96" class="st9" width="55.65" height="5.16"/>
			<g>
				<rect x="126.51" y="165.8" class="st13" width="16.28" height="3.48"/>
				<rect x="144.12" y="165.8" class="st13" width="16.28" height="3.48"/>
				<rect x="161.73" y="165.8" class="st13" width="16.28" height="3.48"/>
				<rect x="179.35" y="165.8" class="st13" width="16.28" height="3.48"/>
			</g>
			<rect x="150.13" y="190.99" class="st14" width="33.06" height="26.79"/>
			<path class="st9" d="M289.18,165.57c-0.71,0-1.29,0.58-1.29,1.29c0,0.71,0.58,1.29,1.29,1.29c0.72,0,1.29-0.58,1.29-1.29
				C290.48,166.15,289.9,165.57,289.18,165.57L289.18,165.57z M287.96,165.67L287.96,165.67c0.68-0.66,1.77-0.66,2.45,0
				c0.68,0.66,0.68,1.73,0,2.39c-0.68,0.66-1.77,0.66-2.45,0C287.29,167.4,287.29,166.33,287.96,165.67z"/>
			<path class="st9" d="M290.7,168.72l-0.38-0.38c0.07-0.05,0.14-0.11,0.21-0.17c0.08-0.08,0.15-0.16,0.2-0.25l0.39,0.38
				L290.7,168.72z"/>
			<path class="st9" d="M292.75,169.83c0.14,0.13,0.14,0.35,0,0.49c-0.14,0.13-0.36,0.13-0.5,0l-1.51-1.49l0.5-0.49L292.75,169.83z"
				/>
			<path class="st9" d="M289.08,167.93c0.12,0,0.25-0.02,0.37-0.07h0c0.06-0.02,0.09-0.09,0.06-0.15c-0.02-0.06-0.09-0.09-0.15-0.06
				c-0.1,0.04-0.19,0.06-0.29,0.06c-0.26,0-0.47-0.13-0.56-0.34c-0.02-0.06-0.09-0.09-0.15-0.06c-0.06,0.02-0.09,0.09-0.06,0.15
				C288.44,167.75,288.75,167.93,289.08,167.93L289.08,167.93z"/>
			<rect x="186.9" y="190.78" class="st15" width="33.06" height="26.79"/>
			<rect x="223.68" y="190.64" class="st16" width="33.06" height="26.79"/>
			<rect x="128.62" y="308.95" class="st17" width="47.34" height="2.33"/>
			<rect x="128.62" y="313.18" class="st17" width="47.34" height="2.33"/>
			<rect x="128.62" y="317.41" class="st17" width="47.34" height="2.33"/>
			<rect x="128.62" y="321.64" class="st17" width="47.34" height="2.33"/>
			<rect x="128.62" y="325.86" class="st17" width="47.34" height="2.33"/>
			<rect x="128.62" y="330.09" class="st17" width="47.34" height="2.33"/>
			<rect x="128.62" y="334.32" class="st17" width="47.34" height="2.33"/>
			<rect x="181.84" y="308.95" class="st17" width="47.34" height="2.33"/>
			<rect x="181.84" y="313.18" class="st17" width="47.34" height="2.33"/>
			<rect x="181.84" y="317.41" class="st17" width="47.34" height="2.33"/>
			<rect x="181.84" y="321.64" class="st17" width="47.34" height="2.33"/>
			<rect x="181.84" y="325.86" class="st17" width="47.34" height="2.33"/>
			<rect x="181.84" y="330.09" class="st17" width="47.34" height="2.33"/>
			<rect x="181.84" y="334.32" class="st17" width="47.34" height="2.33"/>
			<rect x="235.38" y="308.95" class="st17" width="47.34" height="2.33"/>
			<rect x="235.38" y="313.18" class="st17" width="47.34" height="2.33"/>
			<rect x="235.38" y="317.41" class="st17" width="47.34" height="2.33"/>
			<rect x="235.38" y="321.64" class="st17" width="47.34" height="2.33"/>
			<rect x="235.38" y="325.86" class="st17" width="47.34" height="2.33"/>
			<rect x="235.38" y="330.09" class="st17" width="47.34" height="2.33"/>
			<rect x="235.38" y="334.32" class="st17" width="47.34" height="2.33"/>
			<rect x="114.16" y="235.18" class="st12" width="181.57" height="56.68"/>
			<rect x="131.18" y="244.54" class="st13" width="46.82" height="37.94"/>
			<rect x="190.07" y="257.87" class="st9" width="74.91" height="1.25"/>
			<rect x="190.07" y="260.95" class="st9" width="74.91" height="1.25"/>
			<rect x="190.07" y="264.02" class="st9" width="74.91" height="1.25"/>
			<rect x="190.07" y="267.11" class="st9" width="49.36" height="1.25"/>
			<g>
				<polygon class="st13" points="116.24,263.52 118.47,262.23 120.7,260.94 120.7,263.52 120.7,266.09 118.47,264.81 				"/>
				<polygon class="st13" points="293.65,263.52 291.42,262.23 289.19,260.94 289.19,263.52 289.19,266.09 291.42,264.81 				"/>
			</g>
			<rect x="128.62" y="294.53" class="st14" width="47.34" height="12.26"/>
			<rect x="181.84" y="295.04" class="st16" width="47.34" height="12.26"/>
			<rect x="235.38" y="295.16" class="st15" width="47.34" height="12.26"/>
		</g>
		<g>
			<g>
				<g>
					
						<rect x="415.65" y="269.33" transform="matrix(0.8285 -0.56 0.56 0.8285 -99.9027 290.7988)" class="st11" width="18.27" height="78.33"/>
					<g>
						
							<rect x="428.95" y="318.54" transform="matrix(0.8287 -0.5597 0.5597 0.8287 -107.9485 300.5976)" class="st18" width="16.18" height="16.19"/>
						
							<rect x="419.28" y="304.23" transform="matrix(0.8285 -0.5599 0.5599 0.8285 -101.6002 292.8464)" class="st19" width="16.18" height="16.18"/>
						
							<rect x="409.61" y="289.92" transform="matrix(0.8284 -0.5601 0.5601 0.8284 -95.2496 285.0961)" class="st20" width="16.18" height="16.19"/>
						
							<rect x="399.94" y="275.61" transform="matrix(0.8285 -0.56 0.56 0.8285 -88.8929 277.1278)" class="st21" width="16.18" height="16.19"/>
					</g>
				</g>
				<g>
					
						<rect x="426.08" y="264.81" transform="matrix(0.9641 -0.2656 0.2656 0.9641 -65.0951 126.4897)" class="st11" width="18.27" height="78.33"/>
					<g>
						
							<rect x="432.94" y="316.98" transform="matrix(0.9641 -0.2656 0.2656 0.9641 -70.497 128.8074)" class="st22" width="16.18" height="16.18"/>
						
							<rect x="428.35" y="300.33" transform="matrix(0.9641 -0.2657 0.2657 0.9641 -66.2539 127.0312)" class="st23" width="16.18" height="16.19"/>
						
							<rect x="423.76" y="283.68" transform="matrix(0.9641 -0.2656 0.2656 0.9641 -61.9794 125.1666)" class="st24" width="16.18" height="16.19"/>
						
							<rect x="419.18" y="267.03" transform="matrix(0.9641 -0.2656 0.2656 0.9641 -57.7283 123.3703)" class="st25" width="16.18" height="16.18"/>
					</g>
				</g>
				<g>
					
						<rect x="406.39" y="293.69" transform="matrix(0.0363 -0.9993 0.9993 0.0363 126.768 737.1038)" class="st11" width="78.32" height="18.27"/>
					<g>
						
							<rect x="436.68" y="316.61" transform="matrix(0.0359 -0.9994 0.9994 0.0359 104.2874 757.509)" class="st26" width="16.18" height="16.18"/>
						
							<rect x="437.3" y="299.35" transform="matrix(0.0359 -0.9994 0.9994 0.0359 122.1356 741.4929)" class="st27" width="16.19" height="16.18"/>
						
							<rect x="437.92" y="282.09" transform="matrix(0.0361 -0.9993 0.9993 0.0361 139.9235 725.4301)" class="st28" width="16.18" height="16.18"/>
						
							<rect x="438.54" y="264.83" transform="matrix(0.036 -0.9994 0.9994 0.036 157.8168 709.4453)" class="st29" width="16.19" height="16.18"/>
					</g>
				</g>
				<g>
					
						<rect x="416.06" y="295.48" transform="matrix(0.3078 -0.9515 0.9515 0.3078 25.2873 643.9809)" class="st11" width="78.33" height="18.27"/>
					<g>
						
							<rect x="440.39" y="317.35" transform="matrix(0.308 -0.9514 0.9514 0.308 0.7445 651.8998)" class="st30" width="16.18" height="16.18"/>
						
							<rect x="445.71" y="300.91" transform="matrix(0.308 -0.9514 0.9514 0.308 20.055 645.585)" class="st31" width="16.18" height="16.18"/>
						
							<rect x="451.03" y="284.48" transform="matrix(0.3077 -0.9515 0.9515 0.3077 39.454 639.3748)" class="st32" width="16.18" height="16.19"/>
						
							<rect x="456.34" y="268.05" transform="matrix(0.3079 -0.9514 0.9514 0.3079 58.6964 632.9734)" class="st5" width="16.18" height="16.19"/>
					</g>
				</g>
				<g>
					
						<rect x="424.69" y="299.75" transform="matrix(0.5666 -0.824 0.824 0.5666 -53.4843 516.0911)" class="st11" width="78.32" height="18.27"/>
					<g>
						
							<rect x="443.35" y="318.83" transform="matrix(0.5667 -0.8239 0.8239 0.5667 -73.7599 513.5803)" class="st33" width="16.18" height="16.19"/>
						
							<rect x="453.14" y="304.6" transform="matrix(0.5667 -0.8239 0.8239 0.5667 -57.7906 515.4953)" class="st34" width="16.19" height="16.19"/>
						
							<rect x="462.93" y="290.37" transform="matrix(0.5666 -0.824 0.824 0.5666 -41.7924 517.4703)" class="st35" width="16.18" height="16.18"/>
						
							<rect x="472.71" y="276.14" transform="matrix(0.5667 -0.8239 0.8239 0.5667 -25.8572 519.2952)" class="st36" width="16.18" height="16.18"/>
					</g>
				</g>
			</g>
			<path class="st37" d="M443.94,335.15c0.88-0.04,1.63,0.65,1.66,1.53c0.04,0.88-0.65,1.63-1.53,1.67
				c-0.88,0.04-1.63-0.65-1.66-1.53C442.38,335.93,443.06,335.18,443.94,335.15z"/>
			<path class="st38" d="M443.98,336.05c0.36-0.02,0.68,0.27,0.69,0.63l0.57,13.76c0.01,0.36-0.27,0.67-0.64,0.69
				c-0.36,0.01-0.68-0.27-0.69-0.64l-0.57-13.76C443.33,336.38,443.62,336.07,443.98,336.05z"/>
		</g>
		<g>
			
				<rect x="21.59" y="290.76" transform="matrix(0.9061 -0.4231 0.4231 0.9061 -120.2486 59.6482)" class="st39" width="105.3" height="19.85"/>
			
				<rect x="24.83" y="305.38" transform="matrix(0.9061 -0.423 0.423 0.9061 -122.869 61.6616)" class="st40" width="105.3" height="4.52"/>
			
				<rect x="19.49" y="291.23" transform="matrix(0.9061 -0.4231 0.4231 0.9061 -118.556 58.3477)" class="st41" width="105.3" height="9.93"/>
			
				<rect x="18.44" y="291.46" transform="matrix(0.906 -0.4232 0.4232 0.906 -117.7141 57.7009)" class="st42" width="105.3" height="4.96"/>
			<polygon class="st43" points="144.67,267.79 126.14,287.41 117.74,269.42 			"/>
			<polygon class="st44" points="144.67,267.79 138.5,274.32 135.7,268.33 			"/>
			<path class="st45" d="M7.27,331.86l0.08,0.18c2.3,4.92,8.14,7.04,13.06,4.74l3.92-1.83l-8.4-17.99l-3.91,1.83
				C7.1,321.1,4.97,326.95,7.27,331.86z"/>
			
				<rect x="19.79" y="314.54" transform="matrix(0.9061 -0.4232 0.4232 0.9061 -135.1113 40.3556)" class="st46" width="7.07" height="19.85"/>
		</g>
		<g>
			<g>
				<path class="st9" d="M256.85,104.75l-10.99-0.19c-0.45-0.01-0.83,0.29-0.83,0.67l-0.01,0.45c-0.01,0.38,0.36,0.69,0.81,0.69
					l10.99,0.19c0.45,0.01,0.83-0.29,0.83-0.67l0.01-0.45C257.67,105.07,257.3,104.76,256.85,104.75z"/>
				<path class="st9" d="M256.81,106.81l-10.99-0.19c-0.46-0.01-0.83,0.29-0.84,0.67l-0.01,0.45c-0.01,0.38,0.36,0.69,0.81,0.69
					l10.99,0.19c0.45,0.01,0.83-0.29,0.84-0.67l0-0.46C257.63,107.13,257.27,106.82,256.81,106.81z"/>
				<path class="st9" d="M256.78,108.86l-10.99-0.19c-0.45-0.01-0.83,0.29-0.84,0.67l-0.01,0.45c-0.01,0.38,0.36,0.69,0.81,0.7
					l10.99,0.19c0.45,0.01,0.83-0.29,0.84-0.66l0.01-0.45C257.6,109.18,257.23,108.87,256.78,108.86z"/>
				<path class="st9" d="M247.13,110.76l8.24,0.14c-0.02,1.36-2.23,2.23-4.16,2.2C249.28,113.07,247.1,112.12,247.13,110.76z"/>
			</g>
			<path class="st9" d="M249.62,93.66c-0.91-0.16-1.55-1.25-1.16-2.69c0.11-0.39,0.42-0.58,0.68-0.24c0.35,0.46,0.4,1.08,0.44,1.66
				C249.61,92.81,249.63,93.23,249.62,93.66L249.62,93.66L249.62,93.66L249.62,93.66z M251.29,92.89L251.29,92.89
				c-0.17-0.1-0.31-0.22-0.42-0.37c-0.46-0.62-0.06-1.93,0.72-2.24c0.2-0.08,0.67-0.16,0.72,0.14c0.08,0.53-0.19,1.09-0.42,1.56
				C251.7,92.35,251.51,92.65,251.29,92.89L251.29,92.89L251.29,92.89L251.29,92.89z M253.63,93.15L253.63,93.15
				c0.07-0.68,0.22-1.35,0.55-1.92c0.28-0.48,0.76-0.88,1.31-0.92c0.15-0.01,0.38-0.03,0.38,0.16c0,0.18-0.02,0.36-0.08,0.54
				c-0.12,0.4-0.31,0.81-0.56,1.16C254.8,92.74,254.26,93.04,253.63,93.15L253.63,93.15L253.63,93.15L253.63,93.15z M253.28,93.76
				L253.28,93.76c-0.02,0.75,0.02,1.5,0.08,2.22c0.11,1.34,0.3,2.68,0.54,3.99c0.06,0.29,0.11,0.58,0.17,0.86
				c0.16,0.77,0.32,1.55,0.55,2.31l0.24,0c-0.28-0.92-0.47-1.92-0.64-2.87c-0.02-0.12-0.05-0.25-0.07-0.38
				c-0.28-1.52-0.5-3.06-0.55-4.62c-0.02-0.48-0.04-1-0.02-1.54l0.01,0l0-0.01c0.41-0.05,0.82-0.15,1.15-0.37
				c0.64-0.41,1.1-1.15,1.31-1.87c0.15-0.53,0.2-1.32-0.31-1.62c-0.44-0.25-1.11,0.06-1.48,0.42c-0.36,0.35-0.56,0.84-0.69,1.31
				c-0.14,0.52-0.23,1.06-0.27,1.6l-0.01,0l0,0.01l-0.07,0c-0.44,0.03-0.97,0.02-1.45-0.11l0,0l-0.01,0
				c0.44-0.58,0.77-1.29,0.83-1.95c0.05-0.53-0.09-1.23-0.63-1.41c-0.54-0.18-1.13,0.29-1.37,0.8c-0.35,0.75-0.32,1.58,0.1,2.22
				c0.1,0.15,0.21,0.27,0.34,0.38l0,0l0,0.01c-0.37,0.34-0.76,0.51-1.12,0.53l0,0l0,0c0-0.9-0.02-1.87-0.37-2.67
				c-0.13-0.29-0.59-1.23-1.08-0.94c-0.62,0.36-0.39,1.71-0.29,2.21c0.16,0.7,0.48,1.54,1.17,1.83c0.08,0.04,0.16,0.06,0.25,0.08
				l0,0l0,0c-0.02,0.74-0.08,1.48-0.18,2.22c-0.22,1.69-0.59,3.36-0.92,5.04c-0.1,0.53-0.2,1.06-0.29,1.59l0.36,0.01
				c0.1-0.57,0.21-1.14,0.32-1.7c0.26-1.31,0.54-2.63,0.73-3.95c0.16-1.06,0.27-2.12,0.28-3.17l0,0c0.43,0.01,0.86-0.16,1.23-0.46
				c0.11-0.1,0.23-0.2,0.33-0.32l0,0l0,0c0.34,0.16,0.72,0.26,1.09,0.29c0.21,0.02,0.44,0.03,0.67,0.02L253.28,93.76L253.28,93.76z"
				/>
			<g>
				<path class="st9" d="M252.49,64.35c-8.18-0.14-14.92,6.37-15.06,14.55c-0.05,2.69,0.67,5.2,1.85,7.43
					c3.52,6.61,4.42,10.3,4.95,13.87c0.44,2.99,1.12,3.7,3.38,3.74c0.96,0.02,2.53,0.04,4.2,0.07c1.67,0.03,3.24,0.06,4.2,0.08
					c2.26,0.04,2.96-0.64,3.51-3.62c0.66-3.55,1.68-7.21,5.43-13.7c1.26-2.17,2.06-4.66,2.1-7.36
					C267.18,71.23,260.66,64.49,252.49,64.35L252.49,64.35z M263.77,86.1L263.77,86.1c-3.65,6.31-4.84,10.08-5.59,14.12
					c-0.08,0.45-0.33,1.82-0.75,2.25c-0.15,0.15-0.43,0.3-1.42,0.28l-4.2-0.07l-4.2-0.07c-0.99-0.01-1.26-0.17-1.4-0.32
					c-0.4-0.44-0.61-1.82-0.68-2.27c-0.6-4.06-1.66-7.87-5.09-14.3c-1.16-2.19-1.73-4.47-1.69-6.78c0.13-7.43,6.27-13.36,13.7-13.24
					c7.43,0.13,13.37,6.28,13.24,13.7C265.66,81.7,265.01,83.95,263.77,86.1z"/>
			</g>
			<path class="st9" d="M244.43,74.97c-0.58,0.46-3.32,2.98-0.5,7.57c0.2,0.33,0.1,0.75-0.23,0.95c-0.12,0.07-0.24,0.1-0.37,0.1
				c-0.23,0-0.45-0.12-0.58-0.33c-3.42-5.58,0.08-8.78,0.82-9.37c0.3-0.23,0.74-0.18,0.97,0.11
				C244.78,74.3,244.73,74.74,244.43,74.97z"/>
			<g>
				<path class="st9" d="M275.15,78.03c-0.21-0.22-0.5-0.35-0.81-0.35l-4.84-0.08c-0.3-0.01-0.59,0.11-0.82,0.33
					c-0.22,0.21-0.35,0.5-0.35,0.81c-0.01,0.31,0.11,0.6,0.32,0.81c0.21,0.22,0.5,0.35,0.81,0.35l4.84,0.08
					c0.31,0,0.59-0.11,0.82-0.32c0.22-0.21,0.34-0.5,0.35-0.81C275.48,78.54,275.36,78.25,275.15,78.03z"/>
				<path class="st9" d="M268.04,71.78c0.2,0,0.4-0.05,0.58-0.14l4.23-2.37c0.09-0.05,0.17-0.11,0.24-0.17c0,0,0,0,0,0
					c0.37-0.36,0.46-0.93,0.2-1.38c-0.15-0.27-0.4-0.46-0.69-0.55c-0.3-0.08-0.61-0.05-0.87,0.1l-4.23,2.36
					c-0.09,0.05-0.16,0.11-0.24,0.18c-0.38,0.36-0.46,0.93-0.21,1.39C267.26,71.55,267.64,71.77,268.04,71.78z"/>
				<path class="st9" d="M264.89,58.23c-0.44-0.26-1.01-0.2-1.38,0.17c-0.07,0.07-0.14,0.15-0.19,0.23l-2.47,4.17
					c-0.32,0.54-0.14,1.25,0.4,1.57c0.17,0.1,0.37,0.16,0.57,0.16c0.3,0,0.6-0.11,0.82-0.32c0.08-0.07,0.14-0.15,0.19-0.24
					l2.47-4.17C265.62,59.27,265.43,58.56,264.89,58.23z"/>
				<path class="st9" d="M230.99,68.07l4.15,2.51c0.17,0.1,0.37,0.16,0.58,0.16c0.3,0.01,0.6-0.11,0.82-0.32
					c0.07-0.07,0.13-0.15,0.19-0.23c0.33-0.54,0.15-1.25-0.39-1.58l-4.15-2.5c-0.44-0.27-1.02-0.21-1.39,0.16
					c-0.07,0.07-0.13,0.14-0.18,0.23C230.28,67.04,230.45,67.75,230.99,68.07z"/>
				<path class="st9" d="M272.53,87.88l-4.15-2.51c-0.44-0.27-1.01-0.21-1.39,0.16c-0.07,0.07-0.13,0.15-0.18,0.23
					c-0.33,0.54-0.15,1.25,0.39,1.58l4.15,2.51c0.17,0.1,0.37,0.16,0.57,0.17c0.3,0,0.6-0.11,0.82-0.32
					c0.07-0.07,0.13-0.15,0.19-0.23C273.24,88.91,273.07,88.21,272.53,87.88z"/>
				<path class="st9" d="M235.76,85.16c-0.3-0.08-0.61-0.05-0.87,0.1l-4.23,2.36c-0.09,0.05-0.17,0.11-0.24,0.18
					c-0.37,0.36-0.46,0.93-0.2,1.38c0.2,0.36,0.57,0.58,0.98,0.59c0.2,0,0.4-0.05,0.58-0.15l4.23-2.37
					c0.09-0.04,0.17-0.11,0.24-0.17c0.38-0.36,0.46-0.93,0.21-1.38C236.3,85.44,236.05,85.25,235.76,85.16z"/>
				<path class="st9" d="M240.89,57.78c-0.14-0.27-0.39-0.46-0.69-0.55c-0.29-0.09-0.61-0.05-0.87,0.1
					c-0.09,0.05-0.17,0.11-0.25,0.18c-0.37,0.36-0.46,0.92-0.21,1.37l2.33,4.25c0.2,0.36,0.58,0.59,0.99,0.6
					c0.2,0,0.39-0.05,0.57-0.14c0.09-0.05,0.17-0.11,0.25-0.18c0.37-0.36,0.46-0.93,0.21-1.38L240.89,57.78z"/>
				<path class="st9" d="M252.36,54.77c-0.31-0.01-0.59,0.11-0.82,0.32c-0.22,0.21-0.34,0.5-0.35,0.81l-0.08,4.84
					c-0.01,0.64,0.5,1.16,1.13,1.17c0.3,0,0.59-0.11,0.82-0.33c0.22-0.21,0.34-0.5,0.35-0.8l0.08-4.85
					C253.5,55.31,252.99,54.78,252.36,54.77z"/>
				<path class="st9" d="M235.8,78.97c0.22-0.22,0.34-0.5,0.35-0.8c0.01-0.31-0.11-0.6-0.32-0.82c-0.21-0.22-0.5-0.35-0.81-0.35
					l-4.84-0.09c-0.31-0.01-0.6,0.11-0.82,0.32c-0.22,0.21-0.35,0.5-0.35,0.81c-0.01,0.63,0.5,1.16,1.13,1.17l4.84,0.08
					C235.29,79.3,235.58,79.19,235.8,78.97z"/>
			</g>
		</g>
		<g>
			<g>
				<g>
					<path class="st9" d="M330.73,94.91c-2.75,0.71-5.33,2.55-7.02,5.33c-1.4,2.3-1.95,4.85-1.74,7.24
						c-0.06,2.88,0.25,7.13-2.62,13.93c-0.6-0.04-1.19,0.24-1.53,0.79c-0.48,0.78-0.23,1.79,0.55,2.27c0.4,0.24,0.86,0.29,1.28,0.18
						l9.5-15.62c-0.74-0.86-0.89-2.11-0.27-3.13c0.76-1.26,2.41-1.66,3.67-0.89c1.25,0.76,1.65,2.41,0.89,3.67
						c-0.64,1.05-1.88,1.49-3.01,1.16l-9.46,15.57c0.08,0.44,0.35,0.84,0.76,1.09c0.78,0.48,1.79,0.23,2.27-0.55
						c0.33-0.55,0.3-1.2-0.01-1.72c5.19-6.25,9.42-7.66,11.89-9.16c1.9-0.96,3.6-2.48,4.83-4.5c1.67-2.75,2.13-5.87,1.51-8.62
						l3.31-4.37c0,0,1.48-1.3-0.09-2.25c-1.56-0.95-7.55-4.59-9.86-6c-2.02-1.22-2.65,1.01-2.65,1.01L330.73,94.91z"/>
				</g>
			</g>
			<path class="st9" d="M344.4,94.86c-0.28,0.46-0.88,0.61-1.35,0.33l-6.54-3.98c-0.46-0.28-0.61-0.88-0.33-1.34l2.96-4.87
				c0.28-0.46,0.89-0.61,1.34-0.33l6.54,3.98c0.46,0.28,0.61,0.88,0.33,1.34L344.4,94.86z"/>
		</g>
		<path class="st9" d="M99.16,119.2l-56.37,49.93l-9.88-11.15l56.37-49.92L99.16,119.2L99.16,119.2z M41.97,163.3L41.97,163.3
			l-0.54,0.47l3.06,3.46l0.54-0.47L41.97,163.3L41.97,163.3z M93.65,117.52L93.65,117.52l-0.53,0.48l3.06,3.46l0.53-0.47
			L93.65,117.52L93.65,117.52z M93.84,120.33L93.84,120.33l-0.54,0.48l1.59,1.79l0.53-0.48L93.84,120.33L93.84,120.33z
			 M92.55,121.48L92.55,121.48l-0.54,0.47l1.59,1.79l0.54-0.48L92.55,121.48L92.55,121.48z M91.26,122.62L91.26,122.62l-0.53,0.48
			l1.59,1.79l0.53-0.47L91.26,122.62L91.26,122.62z M89.96,123.77L89.96,123.77l-0.54,0.47l1.59,1.79l0.53-0.47L89.96,123.77
			L89.96,123.77z M87.2,123.24L87.2,123.24l-0.54,0.48l3.07,3.46l0.54-0.48L87.2,123.24L87.2,123.24z M87.38,126.05L87.38,126.05
			l-0.54,0.48l1.59,1.79l0.54-0.48L87.38,126.05L87.38,126.05z M86.09,127.2L86.09,127.2l-0.54,0.48l1.59,1.79l0.54-0.48
			L86.09,127.2L86.09,127.2z M84.79,128.35L84.79,128.35l-0.54,0.47l1.59,1.79l0.53-0.47L84.79,128.35L84.79,128.35z M83.5,129.49
			L83.5,129.49l-0.54,0.48l1.59,1.79l0.53-0.48L83.5,129.49L83.5,129.49z M80.73,128.96L80.73,128.96l-0.54,0.48l3.06,3.46
			l0.54-0.48L80.73,128.96L80.73,128.96z M80.92,131.78L80.92,131.78l-0.54,0.48l1.59,1.79l0.54-0.48L80.92,131.78L80.92,131.78z
			 M79.63,132.92L79.63,132.92l-0.54,0.47l1.59,1.79l0.54-0.48L79.63,132.92L79.63,132.92z M78.33,134.06L78.33,134.06l-0.54,0.48
			l1.59,1.79l0.54-0.48L78.33,134.06L78.33,134.06z M77.04,135.21L77.04,135.21l-0.54,0.47l1.59,1.79l0.54-0.48L77.04,135.21
			L77.04,135.21z M74.27,134.69L74.27,134.69l-0.54,0.47l3.06,3.46l0.54-0.47L74.27,134.69L74.27,134.69z M74.46,137.5L74.46,137.5
			l-0.54,0.47l1.59,1.79l0.53-0.48L74.46,137.5L74.46,137.5z M73.16,138.64L73.16,138.64l-0.53,0.48l1.59,1.79l0.53-0.47
			L73.16,138.64L73.16,138.64z M71.87,139.79L71.87,139.79l-0.53,0.48l1.59,1.79l0.53-0.48L71.87,139.79L71.87,139.79z
			 M70.58,140.93L70.58,140.93l-0.53,0.47l1.59,1.79l0.53-0.47L70.58,140.93L70.58,140.93z M67.81,140.41L67.81,140.41l-0.54,0.48
			l3.06,3.46l0.54-0.48L67.81,140.41L67.81,140.41z M67.99,143.22L67.99,143.22l-0.54,0.47l1.59,1.79l0.54-0.48L67.99,143.22
			L67.99,143.22z M66.7,144.37L66.7,144.37l-0.53,0.48l1.59,1.79l0.54-0.48L66.7,144.37L66.7,144.37z M65.41,145.51L65.41,145.51
			l-0.54,0.48l1.59,1.79L67,147.3L65.41,145.51L65.41,145.51z M64.12,146.65L64.12,146.65l-0.54,0.47l1.59,1.79l0.53-0.48
			L64.12,146.65L64.12,146.65z M61.35,146.13L61.35,146.13l-0.54,0.48l3.06,3.46l0.53-0.47L61.35,146.13L61.35,146.13z
			 M61.53,148.94L61.53,148.94L61,149.42l1.59,1.79l0.53-0.48L61.53,148.94L61.53,148.94z M60.24,150.09L60.24,150.09l-0.54,0.48
			l1.59,1.79l0.54-0.47L60.24,150.09L60.24,150.09z M58.95,151.23L58.95,151.23l-0.54,0.47L60,153.5l0.53-0.47L58.95,151.23
			L58.95,151.23z M57.66,152.38L57.66,152.38l-0.54,0.47l1.59,1.79l0.53-0.47L57.66,152.38L57.66,152.38z M54.89,151.85
			L54.89,151.85l-0.54,0.48l3.06,3.46l0.53-0.47L54.89,151.85L54.89,151.85z M55.07,154.67L55.07,154.67l-0.54,0.47l1.59,1.79
			l0.53-0.47L55.07,154.67L55.07,154.67z M53.78,155.81L53.78,155.81l-0.54,0.47l1.59,1.79l0.54-0.47L53.78,155.81L53.78,155.81z
			 M52.49,156.95L52.49,156.95l-0.54,0.47l1.59,1.79l0.53-0.47L52.49,156.95L52.49,156.95z M51.2,158.1L51.2,158.1l-0.54,0.48
			l1.59,1.79l0.53-0.47L51.2,158.1L51.2,158.1z M48.43,157.58L48.43,157.58l-0.54,0.47l3.06,3.46l0.54-0.47L48.43,157.58
			L48.43,157.58z M48.61,160.39L48.61,160.39l-0.54,0.47l1.59,1.79l0.54-0.47L48.61,160.39L48.61,160.39z M47.32,161.53
			L47.32,161.53l-0.54,0.47l1.59,1.79l0.54-0.47L47.32,161.53L47.32,161.53z M46.03,162.67L46.03,162.67l-0.54,0.48l1.59,1.79
			l0.54-0.47L46.03,162.67L46.03,162.67z M44.74,163.82L44.74,163.82l-0.54,0.47l1.59,1.79l0.54-0.47L44.74,163.82z"/>
		<g>
			<path class="st9" d="M148.95,95.06c-1.08-7.82,4.48-15.06,12.27-16.13c7.8-1.08,15.01,4.4,16.09,12.22
				c1.09,7.91-4.37,15.14-12.16,16.22C157.35,108.44,150.04,102.97,148.95,95.06L148.95,95.06z M139.49,77.61L139.49,77.61
				c-0.29,0.04-0.49,0.31-0.45,0.6l0.24,1.75l-2.11,0.29c-0.78,0.11-1.37,0.89-1.26,1.67l4.06,29.41c0.11,0.78,0.87,1.28,1.65,1.17
				l47.56-6.56c0.78-0.11,1.28-0.78,1.18-1.56l-4.06-29.41c-0.11-0.78-0.79-1.38-1.57-1.28l-3.02,0.42l-0.16-1.17
				c-0.07-0.49-0.51-0.83-1-0.76l-5.85,0.81c-0.49,0.07-0.82,0.51-0.75,1l0.16,1.17l-27.71,3.82l-0.24-1.75
				c-0.04-0.29-0.31-0.49-0.6-0.45L139.49,77.61L139.49,77.61z M181.62,79.9L181.62,79.9c0.49-0.07,0.83-0.51,0.76-1l-0.11-0.78
				c-0.07-0.49-0.5-0.73-0.99-0.66l-5.85,0.8c-0.49,0.07-0.84,0.41-0.77,0.9l0.11,0.78c0.07,0.49,0.51,0.82,1,0.76L181.62,79.9z"/>
			<path class="st9" d="M161.2,80.22c-7.26,1-12.26,7.62-11.27,14.79c1,7.27,7.61,12.29,14.87,11.29
				c7.15-0.99,12.15-7.61,11.15-14.88C174.96,84.25,168.35,79.24,161.2,80.22L161.2,80.22z M153.73,94.49L153.73,94.49
				c-0.69-5.04,2.85-9.86,7.99-10.57c5.02-0.69,9.85,2.97,10.55,8.01c0.71,5.15-2.95,9.99-7.97,10.68
				C159.16,103.32,154.44,99.64,153.73,94.49z"/>
			<path class="st9" d="M161.79,84.89c4.63-0.64,8.9,2.59,9.54,7.22c0.64,4.63-2.6,8.9-7.23,9.54c-4.63,0.64-8.9-2.6-9.54-7.22
				C153.93,89.8,157.16,85.53,161.79,84.89L161.79,84.89z M162.24,88.14L162.24,88.14c-2.84,0.39-4.81,3.01-4.42,5.84
				c0.39,2.83,3.01,4.82,5.84,4.43c2.83-0.39,4.82-3.01,4.42-5.84C167.69,89.73,165.07,87.75,162.24,88.14z"/>
		</g>
		<g>
			<path class="st9" d="M388.67,128.02c2.25-0.07,4.33,0.91,4.77,2.3c0.43,1.4-1.1,2.73-3.54,2.84c-2.44,0.12-4.68-1.07-4.92-2.51
				C384.74,129.22,386.43,128.09,388.67,128.02L388.67,128.02z M417.16,125.26L417.16,125.26c-2.92-3.81-6.73-6.38-10.99-8.25
				c-4.02-1.77-8.58-2.83-13.02-2.86c-5.42-0.04-11.45,1.77-6.79,4.72c2.44,1.55,4.05,2.35,3.44,4.07c-0.61,1.72-2.87,1.75-5.7,0.26
				c-5.77-3.05-8.55,1.03-6.62,6.78c2.35,7.03,11.89,17.04,28.81,15.61c7.23-0.61,11.91-3.88,13.53-8.17
				C421.24,133.69,420.08,129.07,417.16,125.26L417.16,125.26z M398.28,133.68L398.28,133.68c2.53-0.12,5.05,0.99,5.76,2.63
				c0.72,1.64-0.81,3.26-3.56,3.44c-2.75,0.19-5.5-1.19-5.99-2.9C394,135.16,395.75,133.81,398.28,133.68L398.28,133.68z
				 M398.07,119.24L398.07,119.24c0.48,0.99-0.69,1.88-2.69,1.9c-2,0.03-3.97-0.84-4.31-1.85c-0.35-1.01,0.95-1.77,2.82-1.77
				C395.75,117.51,397.59,118.25,398.07,119.24L398.07,119.24z M406.75,127.18L406.75,127.18c-0.67-1.2,0.25-2.13,1.97-2.18
				c1.72-0.04,3.68,0.8,4.47,1.98c0.79,1.17,0.03,2.26-1.81,2.33C409.54,129.38,407.43,128.38,406.75,127.18L406.75,127.18z
				 M408.19,131.47L408.19,131.47c1.97-0.08,4.15,0.88,4.98,2.27c0.83,1.39-0.11,2.71-2.22,2.84c-2.12,0.13-4.48-1.04-5.17-2.46
				C405.09,132.69,406.22,131.56,408.19,131.47z"/>
			<path class="st9" d="M434.19,105.28c-0.37,1.1-7.1,30.77-8.79,38.23c0.12-0.03,0.24-0.06,0.36-0.08c1.53-0.3,3.27,0.04,4.5,1.02
				c1.26-7.57,6.26-37.53,6.34-38.69C436.73,103.54,434.89,103.18,434.19,105.28z"/>
			<path class="st9" d="M422.25,148.55c-0.5,3.41,1.51,5.8-1.79,9.49c4.43-1.61,10.47-5.09,10.4-10.46
				C430.81,143.52,423.13,142.51,422.25,148.55z"/>
		</g>
		<g>
			<path class="st9" d="M32.57,195.33c-3.54,0-6.41,2.88-6.41,6.41v22.2c0,3.54,2.88,6.41,6.41,6.41h31.35
				c3.54,0,6.41-2.88,6.41-6.41v-22.2c0-3.54-2.88-6.41-6.41-6.41H32.57L32.57,195.33z M63.92,232.83H32.57
				c-4.89,0-8.88-3.98-8.88-8.88v-22.2c0-4.9,3.98-8.88,8.88-8.88h31.35c4.89,0,8.88,3.98,8.88,8.88v22.2
				C72.8,228.85,68.82,232.83,63.92,232.83z"/>
			<polygon class="st9" points="39.28,221.28 39.28,204.42 61.45,212.85 			"/>
		</g>
		<path class="st9" d="M444.99,195.87c4.33-2.68,9.85-0.02,10.45,5.04c0.3,2.55-0.94,5.12-3.13,6.47
			c-4.33,2.68-9.85,0.02-10.45-5.04C441.56,199.79,442.8,197.22,444.99,195.87L444.99,195.87z M428.85,205.26l2.04,5.84l6.07-2.12
			c0.83,1.33,1.87,2.47,3.06,3.42l-2.79,5.79l5.57,2.69l2.79-5.79c1.48,0.34,3.03,0.44,4.58,0.26l2.12,6.07l5.84-2.04l-2.12-6.07
			c1.33-0.83,2.47-1.87,3.42-3.06l5.79,2.79l2.69-5.57l-5.79-2.79c0.34-1.48,0.44-3.03,0.26-4.58l6.07-2.12l-2.04-5.84l-6.07,2.12
			c-0.83-1.33-1.87-2.48-3.06-3.42l2.79-5.79l-5.57-2.69l-2.8,5.79c-1.48-0.34-3.03-0.44-4.58-0.26l-2.12-6.07l-5.84,2.04l2.12,6.07
			c-1.33,0.83-2.47,1.87-3.42,3.06l-5.79-2.79l-2.69,5.57l5.79,2.79c-0.34,1.48-0.44,3.03-0.26,4.58L428.85,205.26z"/>
		<path class="st9" d="M479.28,191.69c3.44-2.13,7.83-0.01,8.31,4.01c0.24,2.03-0.75,4.07-2.48,5.15c-3.44,2.13-7.83,0.01-8.3-4.01
			C476.56,194.81,477.55,192.76,479.28,191.69L479.28,191.69z M466.46,199.16l1.62,4.64l4.82-1.68c0.66,1.05,1.49,1.97,2.43,2.72
			l-2.22,4.6l4.43,2.14l2.22-4.6c1.18,0.27,2.41,0.35,3.64,0.21l1.68,4.82l4.64-1.62l-1.68-4.82c1.05-0.66,1.97-1.49,2.72-2.43
			l4.6,2.22l2.14-4.43l-4.6-2.22c0.27-1.18,0.35-2.41,0.21-3.64l4.82-1.68l-1.62-4.64l-4.82,1.68c-0.66-1.05-1.49-1.97-2.43-2.72
			l2.22-4.6l-4.43-2.13l-2.22,4.6c-1.18-0.27-2.41-0.35-3.64-0.21l-1.68-4.82l-4.64,1.62l1.68,4.82c-1.06,0.66-1.97,1.49-2.72,2.43
			l-4.6-2.22l-2.13,4.43l4.6,2.22c-0.27,1.18-0.35,2.41-0.21,3.64L466.46,199.16z"/>
	</g>
</g>
<g id="DESIGNED_BY_FREEPIK">
</g>
</svg>
