<?xml version="1.0" encoding="utf-8"?>
<!-- Generator: Adobe Illustrator 23.0.3, SVG Export Plug-In . SVG Version: 6.00 Build 0)  -->
<svg version="1.1" id="Web_Design_2_" xmlns="http://www.w3.org/2000/svg" xmlns:xlink="http://www.w3.org/1999/xlink" x="0px"
	 y="0px" viewBox="0 0 1200 1200" style="enable-background:new 0 0 1200 1200;" xml:space="preserve">
<style type="text/css">
	.st0{fill:none;}
	.st1{fill:#FFDB79;}
	.st2{fill-rule:evenodd;clip-rule:evenodd;fill:#34465C;}
	.st3{fill-rule:evenodd;clip-rule:evenodd;fill:#34404F;}
	.st4{fill-rule:evenodd;clip-rule:evenodd;fill:#6E7F8F;}
	.st5{fill-rule:evenodd;clip-rule:evenodd;fill:#FFE8AE;}
	.st6{fill-rule:evenodd;clip-rule:evenodd;fill:#FEFEFE;}
	.st7{fill-rule:evenodd;clip-rule:evenodd;fill:#363F48;}
	.st8{fill-rule:evenodd;clip-rule:evenodd;fill:#F16858;}
	.st9{fill-rule:evenodd;clip-rule:evenodd;fill:#C02729;}
	.st10{fill-rule:evenodd;clip-rule:evenodd;fill:#D0D2D4;}
	.st11{fill-rule:evenodd;clip-rule:evenodd;fill:#7C7C7C;}
	.st12{fill-rule:evenodd;clip-rule:evenodd;fill:#FFFFFF;}
	.st13{fill-rule:evenodd;clip-rule:evenodd;fill:#353F49;}
	.st14{fill-rule:evenodd;clip-rule:evenodd;fill:#F77B55;}
	.st15{fill-rule:evenodd;clip-rule:evenodd;fill:#76D0DE;}
	.st16{fill-rule:evenodd;clip-rule:evenodd;fill:#FFDB79;}
	.st17{fill-rule:evenodd;clip-rule:evenodd;fill:#CCCCCC;}
	.st18{fill-rule:evenodd;clip-rule:evenodd;fill:#08C6A2;}
</style>
<g id="Background">
	<rect id="Background_1" x="-125.02" y="-99" class="st0" width="1460.94" height="1460.94"/>
	<circle id="Background_2" class="st0" cx="605.45" cy="631.47" r="485.76"/>
</g>
<g id="Web_Design_1_">
	<g>
		<polygon class="st1" points="372.25,129.02 554.48,129.02 558.85,129.02 558.85,133.38 558.85,256.16 705.02,256.16 
			709.38,256.16 709.38,260.52 709.38,322.53 700.65,322.53 700.65,264.89 554.48,264.89 550.12,264.89 550.12,260.52 
			550.12,137.74 372.25,137.74 		"/>
		<polygon class="st1" points="228.23,191.68 132.21,191.68 132.21,357.12 123.48,357.12 123.48,187.32 123.48,182.95 
			127.85,182.95 228.23,182.95 		"/>
	</g>
	<g>
		<path class="st2" d="M277.31,401.5h726.95c14.74,0,26.85,12.11,26.85,26.93v496.55H250.38V428.43
			C250.38,413.61,262.48,401.5,277.31,401.5L277.31,401.5z"/>
		<path class="st3" d="M129.41,1015.8h511.37h511.29c2.8,0,2.22-2.14-1.23-4.78l-109.77-84.41c-3.46-2.64-8.56-4.77-11.36-4.77
			H640.78H251.86c-2.8,0-7.91,2.14-11.36,4.77l-109.85,84.41C127.19,1013.66,126.61,1015.8,129.41,1015.8L129.41,1015.8z"/>
		<path class="st2" d="M133.53,1009.71c338.11,0,676.31,0,1014.5,0c7.66,0,8.4,6.26,1.65,14l-13.75,15.57
			c-6.83,7.74-18.69,14-26.35,14c-312.58,0-625.09,0-937.59,0c-7.74,0-19.6-6.26-26.35-14l-13.75-15.57
			C125.05,1015.97,125.79,1009.71,133.53,1009.71L133.53,1009.71z"/>
		<polygon class="st4" points="561.07,968.87 604.14,968.87 677.43,968.87 720.41,968.87 744.37,995.13 653.46,995.13 628.1,995.13 
			537.11,995.13 		"/>
		<rect x="274.92" y="435.1" class="st5" width="731.73" height="463.2"/>
	</g>
	<g>
		<g>
			<path class="st6" d="M1080.18,314.38c5.77-9.39,9.47-19.68,11.11-30.39l32.44-5.6l-8.73-50.31l-32.45,5.68
				c-2.55-4.69-5.6-9.22-9.14-13.5c-3.54-4.2-7.49-7.99-11.61-11.36l11.28-30.88l-47.84-17.62l-11.36,30.96
				c-10.79-0.33-21.66,1.48-31.87,5.52l-21.08-25.28l-39.2,32.77l21.08,25.2c-5.77,9.39-9.47,19.76-11.12,30.39l-32.44,5.68
				l8.73,50.23l32.44-5.6c2.55,4.69,5.6,9.22,9.14,13.42c3.54,4.28,7.5,8.07,11.61,11.36l-11.36,30.96l47.93,17.54l11.36-30.96
				c10.79,0.33,21.66-1.48,31.87-5.52l21.08,25.28l39.19-32.69L1080.18,314.38z"/>
			<path class="st7" d="M1027.9,291.57c10.78-9.06,12.27-25.12,3.21-35.9c-9.06-10.87-25.11-12.27-35.99-3.29
				c-10.79,9.06-12.27,25.2-3.21,35.98C1000.96,299.14,1017.02,300.62,1027.9,291.57L1027.9,291.57z M1043.7,310.51
				c21.24-17.79,24.13-49.41,6.34-70.74c-17.79-21.25-49.41-24.13-70.74-6.34c-21.24,17.79-24.13,49.49-6.34,70.74
				C990.76,325.49,1022.38,328.29,1043.7,310.51L1043.7,310.51z"/>
		</g>
		<g>
			<path class="st6" d="M873,208.73c-3.05-7-7.49-13.26-12.93-18.36l9.55-20.75l-32.28-14.82l-9.55,20.75
				c-3.63-0.41-7.41-0.41-11.28-0.08c-3.79,0.41-7.49,1.15-11.03,2.22l-13.26-18.69l-28.98,20.5l13.26,18.69
				c-4.37,6.01-7.66,12.93-9.39,20.42l-22.81,2.06l3.29,35.33l22.81-2.14c3.13,7,7.57,13.26,13.01,18.36l-9.55,20.83l32.2,14.74
				l9.55-20.75c3.7,0.41,7.49,0.41,11.28,0.08c3.87-0.33,7.58-1.07,11.12-2.14l13.26,18.61l28.9-20.5l-13.26-18.69
				c4.45-6.01,7.66-12.93,9.38-20.34l22.81-2.14l-3.29-35.33L873,208.73z"/>
			<path class="st7" d="M839.4,229.64c-0.91-9.72-9.55-16.88-19.35-15.97c-9.72,0.9-16.88,9.55-15.97,19.27
				c0.9,9.72,9.55,16.96,19.27,16.06C833.14,248.01,840.31,239.44,839.4,229.64L839.4,229.64z M856.45,228.08
				c-1.81-19.19-18.78-33.27-37.96-31.54c-19.19,1.81-33.27,18.77-31.54,37.96c1.81,19.19,18.86,33.35,38.05,31.54
				C844.18,264.23,858.26,247.27,856.45,228.08L856.45,228.08z"/>
		</g>
	</g>
	<g>
		<path class="st6" d="M303.08,63.8c-35.41,0-65.14,22.73-73.54,53.52c-34.42,3.71-61.18,31.13-61.18,64.4
			c0,35.9,31.05,64.97,69.25,64.97l0,0h177.05l0,0c0.16,0,0.33,0,0.49,0c33.02,0,59.78-25.11,59.78-56.08
			c0-23.06-14.91-42.9-36.07-51.47c0-0.41,0-0.74,0-1.15c0-21.91-18.94-39.61-42.24-39.61c-9.06,0-17.54,2.72-24.37,7.24
			C360.31,81.01,333.8,63.8,303.08,63.8L303.08,63.8z"/>
		<path class="st6" d="M545.01,212.76c-18.53,0-34.01,11.86-38.37,27.92c-17.95,1.98-31.95,16.3-31.95,33.68
			c0,18.69,16.14,33.84,36.15,33.84l0,0h92.39l0,0c0.08,0,0.16,0,0.25,0c17.21,0,31.21-13.09,31.21-29.23
			c0-12.02-7.74-22.4-18.85-26.84c0-0.25,0-0.41,0-0.66c0-11.36-9.8-20.67-21.99-20.67c-4.78,0-9.14,1.4-12.76,3.79
			C574.91,221.74,561.07,212.76,545.01,212.76L545.01,212.76z"/>
	</g>
	<g>
		<rect x="938.55" y="626.39" class="st6" width="244.82" height="314.89"/>
		<path class="st8" d="M1184.93,626.39H1061H937.07c-4.94,0-8.89-4.04-8.89-8.89v-13.18c0-4.86,3.95-8.89,8.89-8.89h89.43
			c-0.16-1.24-0.25-2.47-0.25-3.71c0-19.19,15.56-34.75,34.75-34.75c19.11,0,34.67,15.56,34.67,34.75c0,1.23-0.08,2.47-0.16,3.71
			h89.43c4.86,0,8.89,4.03,8.89,8.89v13.18C1193.82,622.35,1189.78,626.39,1184.93,626.39L1184.93,626.39z M1061,578.3
			c-7.41,0-13.42,6.01-13.42,13.42c0,7.33,6.01,13.34,13.42,13.34c7.33,0,13.34-6.01,13.34-13.34
			C1074.34,584.31,1068.32,578.3,1061,578.3L1061,578.3z"/>
		<path class="st9" d="M1184.93,626.39H1061H937.07c-4.94,0-8.89-4.04-8.89-8.89v-0.08h265.65v0.08
			C1193.82,622.35,1189.78,626.39,1184.93,626.39L1184.93,626.39z"/>
		<polygon class="st10" points="1143.34,941.28 1183.36,901.26 1143.34,901.83 		"/>
		<g>
			<rect x="974.61" y="671.02" class="st11" width="172.68" height="14.66"/>
			<rect x="974.61" y="727.59" class="st11" width="172.68" height="14.66"/>
			<rect x="974.61" y="784.25" class="st11" width="172.68" height="14.66"/>
			<rect x="974.61" y="840.82" class="st11" width="172.68" height="14.66"/>
		</g>
	</g>
	<g>
		<g>
			<path class="st12" d="M54.64,322.03h824.61c11.45,0,20.75,9.39,20.75,20.83v469.21c0,11.45-9.3,20.84-20.75,20.84H54.64
				c-11.45,0-20.83-9.39-20.83-20.84V342.87C33.81,331.42,43.2,322.03,54.64,322.03L54.64,322.03z"/>
			<g>
				<path class="st13" d="M52.09,322.03h829.64c10.05,0,18.28,8.24,18.28,18.28v56.16c0,0.82-0.66,1.48-1.48,1.48H33.81v-57.64
					C33.81,330.27,42.04,322.03,52.09,322.03L52.09,322.03z"/>
				<path class="st14" d="M76.63,375.81c8.81,0,15.89-7.49,15.89-16.63c0-9.22-7.08-16.63-15.89-16.63
					c-8.73,0-15.89,7.41-15.89,16.63C60.73,368.31,67.9,375.81,76.63,375.81L76.63,375.81z"/>
				<path class="st15" d="M121.1,375.81c8.73,0,15.89-7.49,15.89-16.63c0-9.22-7.16-16.63-15.89-16.63
					c-8.81,0-15.89,7.41-15.89,16.63C105.2,368.31,112.28,375.81,121.1,375.81L121.1,375.81z"/>
				<path class="st16" d="M165.56,375.81c8.73,0,15.89-7.49,15.89-16.63c0-9.22-7.17-16.63-15.89-16.63
					c-8.81,0-15.98,7.41-15.98,16.63C149.59,368.31,156.75,375.81,165.56,375.81L165.56,375.81z"/>
				<rect x="205.58" y="345.17" class="st12" width="669.8" height="31.54"/>
			</g>
		</g>
		<rect x="103.39" y="427.6" class="st17" width="185.86" height="24.54"/>
		<rect x="366.32" y="427.6" class="st17" width="185.86" height="24.54"/>
		<rect x="630.08" y="427.6" class="st17" width="185.86" height="24.54"/>
		<rect x="98.37" y="492.49" class="st16" width="447.14" height="203.56"/>
		<rect x="582.32" y="492.49" class="st14" width="137.02" height="130.27"/>
		<rect x="94.99" y="719.77" class="st17" width="341.65" height="14"/>
		<rect x="160.29" y="746.04" class="st17" width="341.65" height="14.08"/>
		<rect x="105.04" y="774.12" class="st17" width="341.65" height="14.08"/>
		<polygon class="st12" points="678.58,557.63 650.83,574.43 623.08,591.23 623.08,557.63 623.08,524.03 650.83,540.83 		"/>
		<rect x="582.32" y="654.55" class="st18" width="274.05" height="130.27"/>
		<rect x="719.34" y="492.49" class="st16" width="137.03" height="130.27"/>
		<path class="st13" d="M200.97,611.81l-25.94-11.53l29.89-11.53l1.24-6.75l-39.2,14.99l-1.15,6.59l34.01,14.99L200.97,611.81z
			 M259.44,604.4l-6.42,37.14h9.22l14.25-82.51h-9.22l-6.42,37.14h-20.26l6.42-37.14h-9.22l-14.25,82.51h9.22l6.42-37.14H259.44z
			 M292.62,641.54l12.85-74.19h15.15l1.48-8.32h-39.53l-1.4,8.32h15.24l-12.85,74.19H292.62z M369.04,575.17l-11.45,66.37h8.73
			l14.25-82.51h-12.85l-24.46,65.88l-2.14-65.88h-12.85l-14.33,82.51h7.99l11.45-65.8l2.3,65.71h8.81L369.04,575.17z M408.49,641.54
			l1.48-8.4h-23.55l12.76-74.11h-9.14l-14.33,82.51H408.49z M437.72,618.56l39.11-14.99l1.15-6.59L444.06,582l-1.15,6.75
			l25.94,11.53l-29.97,11.53L437.72,618.56z"/>
		<path class="st6" d="M654.53,729.73l-20.75-9.14l23.47-9.14l0.74-5.27l-30.63,11.77l-0.74,5.27l27.09,11.86L654.53,729.73z
			 M682.61,687.98l-9.72,65.22h15.23c10.21,0,15.81-6.09,17.29-16.14l4.86-32.86c1.57-10.05-2.22-16.22-12.35-16.22H682.61z
			 M681.13,746.61l7.82-52.04h7.83c5.27,0,7.33,3.3,6.42,9.22l-5.03,33.6c-0.9,5.93-3.87,9.22-9.14,9.22H681.13z M719.5,687.98
			l-9.72,65.22h7.25l9.8-65.22H719.5z M732.44,687.98l2.47,65.22h10.79l21.9-65.22h-6.67l-19.02,56.73l-2.14-56.73H732.44z
			 M780.61,735.08l30.63-11.86l0.82-5.27l-27.09-11.77l-0.83,5.27l20.75,9.14l-23.47,9.14L780.61,735.08z"/>
	</g>
</g>
</svg>
